<?xml version="1.0" encoding="UTF-8"?>
<svg width="36px" height="11px" viewBox="0 0 36 11" version="1.1" xmlns="http://www.w3.org/2000/svg" xmlns:xlink="http://www.w3.org/1999/xlink">
    <!-- Generator: Sketch 50 (54983) - http://www.bohemiancoding.com/sketch -->
    <title>LOGO Copy</title>
    <desc>Created with Sketch.</desc>
    <defs></defs>
    <g id="Page-1" stroke="none" stroke-width="1" fill="none" fill-rule="evenodd">
        <g id="unplanned-maintenance-mobile" transform="translate(-170.000000, -25.000000)" fill="#222222">
            <g id="Nav---375-Mobile---Hybris">
                <path d="M206,25 L195.6875,25 L195.6875,35.575 L198.0875,35.575 L198.0875,31.6 L202.5125,31.6 L202.5125,29.6875 L198.0875,29.6875 L198.0875,26.9125 L206,26.9125 L206,25.1125 L206,25 Z M189.0875,35.6875 L189.0875,31.1125 L193.5125,31.1125 L193.5125,29.9125 L189.0875,29.9125 L189.0875,25.375 L187.8875,25.375 L187.8875,29.9125 L183.425,29.9125 L183.425,31.1125 L187.8875,31.1125 L187.8875,35.6875 L189.0875,35.6875 Z M172.4,31.7125 L174.8,31.7125 L179,35.6875 L182.4875,35.6875 L177.6875,31.7125 L179,31.7125 C179.775004,31.7125 180.368748,31.5375017 180.78125,31.1875 C181.193752,30.8374982 181.4,30.3375032 181.4,29.6875 L181.4,27.175 C181.4,26.4999966 181.193752,25.9875017 180.78125,25.6375 C180.368748,25.2874982 179.775004,25.1125 179,25.1125 L170,25.1125 L170,35.6875 L172.4,35.6875 L172.4,31.7125 Z M172.4,26.9125 L177.9125,26.9125 C178.162501,26.9125 178.349999,26.9187499 178.475,26.93125 C178.600001,26.9437501 178.7,26.9874996 178.775,27.0625 C178.875001,27.1125002 178.95625,27.1999994 179.01875,27.325 C179.08125,27.4500006 179.1125,27.5999991 179.1125,27.775 L179.1125,29.0875 C179.1125,29.2625009 179.08125,29.4124994 179.01875,29.5375 C178.95625,29.6625006 178.875001,29.7499997 178.775,29.8 C178.649999,29.8750004 178.518751,29.9125 178.38125,29.9125 L177.9125,29.9125 L172.4,29.9125 L172.4,26.9125 Z" id="LOGO-Copy"></path>
            </g>
        </g>
    </g>
</svg>